<?xml version="1.0" encoding="UTF-8" standalone="no"?>
<svg
   xmlns:dc="http://purl.org/dc/elements/1.1/"
   xmlns:cc="http://creativecommons.org/ns#"
   xmlns:rdf="http://www.w3.org/1999/02/22-rdf-syntax-ns#"
   xmlns:svg="http://www.w3.org/2000/svg"
   xmlns="http://www.w3.org/2000/svg"
   viewBox="0 0 1122.52 1122.52"
   height="1122.52"
   width="1122.52"
   xml:space="preserve"
   id="svg3869"
   version="1.1"><metadata
     id="metadata3875"><rdf:RDF><cc:Work
         rdf:about=""><dc:format>image/svg+xml</dc:format><dc:type
           rdf:resource="http://purl.org/dc/dcmitype/StillImage" /><dc:title></dc:title></cc:Work></rdf:RDF></metadata><defs
     id="defs3873"><clipPath
       id="clipPath3885"
       clipPathUnits="userSpaceOnUse"><path
         id="path3883"
         d="M 0,841.89 H 841.89 V 0 H 0 Z" /></clipPath></defs><g
     transform="matrix(1.3333333,0,0,-1.3333333,0,1122.52)"
     id="g3877"><g
       id="g3879"><g
         clip-path="url(#clipPath3885)"
         id="g3881"><g
           transform="translate(236.1748,531.2246)"
           id="g3887"><path
             id="path3889"
             style="fill:#1d1b19;fill-opacity:1;fill-rule:nonzero;stroke:none"
             d="m 0,0 c 0,59.792 19.742,119.235 63.214,155.275 35.433,29.375 87.967,41 138.25,41 5.487,0 12.572,0.573 17.949,0.159 -18.465,5.281 -39.683,7.341 -59.949,7.341 -111.975,0 -202.75,-86.632 -202.75,-193.5 0,-93.045 65.466,-171.646 158.97,-187.983 C 54.322,-141.448 0,-79.397 0,0" /></g><g
           transform="translate(176.0356,685.3809)"
           id="g3891"><path
             id="path3893"
             style="fill:#1d1b19;fill-opacity:1;fill-rule:nonzero;stroke:none"
             d="m 0,0 c -6.219,0 -11.259,5.041 -11.259,11.259 0,6.218 5.04,11.259 11.259,11.259 6.218,0 11.259,-5.041 11.259,-11.259 C 11.259,5.041 6.218,0 0,0 m 0,32.526 c -12.659,0 -22.921,-10.261 -22.921,-22.92 0,-12.659 10.262,-22.92 22.921,-22.92 12.658,0 22.92,10.261 22.92,22.92 0,12.659 -10.262,22.92 -22.92,22.92" /></g><g
           transform="translate(165.0356,302.1904)"
           id="g3895"><path
             id="path3897"
             style="fill:#1d1b19;fill-opacity:1;fill-rule:nonzero;stroke:none"
             d="m 0,0 c -10.555,7.297 -18.555,17.017 -22.813,28.81 -2.261,6.262 -2.833,13.072 -2.833,19.959 0,20.244 10.162,39.938 26.833,52.374 14.2,10.591 33.217,15.501 53.667,15.501 4.257,0 8.435,-0.284 12.514,-0.821 -2.984,3.645 -5.833,7.389 -8.53,11.231 -0.162,0.001 -0.322,0.006 -0.484,0.006 -7.883,0 -15.552,-0.785 -22.909,-2.261 -1.424,2.817 -3.489,7.678 -6.274,16.176 -9.909,30.243 -12.088,77.57 -12.939,114.796 l -1.111,104.35 c 1.847,0.361 3.1,1.06 3.1,1.862 0,1.173 -2.676,2.125 -5.977,2.125 -3.301,0 -5.977,-0.952 -5.977,-2.125 0,-0.803 1.254,-1.502 3.104,-1.863 l 1.268,-119.078 c -0.04,-1.687 -0.062,-3.516 -0.062,-5.501 0,-9.425 0.244,-19.068 0.43,-29.029 l 0.198,-18.54 c 0,-18.309 -0.755,-37.831 -3.949,-59.216 -1.112,-7.451 -3.323,-12.911 -5.573,-16.771 -26.171,-15.442 -43.329,-41.278 -43.329,-70.55 0,-0.083 0.003,-0.164 0.003,-0.247 h -0.003 V -36.937 C -30.783,-22.542 -16.613,-9.995 0,0" /></g><g
           transform="translate(265.0894,340.9844)"
           id="g3899"><path
             id="path3901"
             style="fill:#1d1b19;fill-opacity:1;fill-rule:nonzero;stroke:none"
             d="m 0,0 c -0.12,0.771 -0.817,1.184 -1.551,0.918 0,0 -19.551,-4.651 -40.981,-13.235 -18.313,-7.336 -37.873,-18.06 -49.167,-25.5 -56.667,-37.334 -85.003,-87.828 -85.003,-152.494 0,-4.257 0.17,-8.839 0.17,-8.839 0.04,-0.779 0.498,-3.833 2.248,-3.833 l 2.398,0.005 c 0.78,0 1.384,0.637 1.342,1.416 0,0 -0.374,7.009 -0.374,11.276 0,44.53 14.217,80.355 41.902,111.059 11.338,12.574 26.335,25.387 42.314,35.915 12.123,7.987 33.424,21.231 52.17,28.995 18.091,7.493 33.853,9.649 33.853,9.649 0.731,0.27 1.231,1.12 1.112,1.891 z" /></g><g
           transform="translate(276.6147,306.7588)"
           id="g3903"><path
             id="path3905"
             style="fill:#1d1b19;fill-opacity:1;fill-rule:nonzero;stroke:none"
             d="m 0,0 c -21.373,-0.712 -65.586,-11.19 -89.726,-24.509 -29,-16 -50.75,-35.5 -62,-56.25 0,0 -6.231,-2.106 -7.645,-2.459 -1.413,-0.352 -1.413,1.237 -0.765,2.299 14.577,23.885 31.657,45.544 54.16,63.16 26.77,20.956 59.471,36.16 94.018,43.173 0,0 0.65,-4.212 2.417,-8.452 C -7.774,12.722 -6.184,7.598 0,0" /></g><g
           transform="translate(586.7241,348.666)"
           id="g3907"><path
             id="path3909"
             style="fill:#1d1b19;fill-opacity:1;fill-rule:nonzero;stroke:none"
             d="m 0,0 c -2.617,-2.275 -56.5,-39.834 -153.333,-39.834 -65.667,0 -118.834,20.667 -122,22.5 -2.885,1.67 -3.441,3.536 -2.5,5 1.5,2.334 5.298,1.41 9.5,-0.166 5.333,-2 40.666,-19.834 120.166,-19.834 90.5,0 140.784,35.281 143.834,37.5 3.666,2.667 6.834,2.666 7.5,1.5 C 3.833,5.5 3.833,3.333 0,0 M 0.667,13.5 C -4.166,13.834 -12,8.333 -27,0.5 c -15,-7.833 -60,-23.334 -117.002,-23.334 -30.273,0 -95.073,3.586 -130.498,23.5 -4.945,2.779 -10.333,6 -14.501,9.335 -4.554,3.643 -11.166,9.999 -16,6.666 -2.938,-2.025 -4.166,-5.834 -3.999,-7.834 0.249,-2.989 0.667,-6 4.167,-10.167 12.523,-14.909 31.08,-21.078 51.666,-27.666 33.334,-10.667 72,-14.667 91.5,-14.667 77.167,0 127.167,19 159.5,37.833 5.953,3.468 10,8 10.334,12.834 0.22,3.177 -2.667,6.166 -7.5,6.5" /></g><g
           transform="translate(584.3901,322.666)"
           id="g3911"><path
             id="path3913"
             style="fill:#1d1b19;fill-opacity:1;fill-rule:nonzero;stroke:none"
             d="m 0,0 c -2.617,-2.275 -56.5,-39.834 -153.333,-39.834 -65.667,0 -118.834,20.667 -122,22.5 -2.885,1.67 -3.441,3.536 -2.5,5 1.5,2.334 5.298,1.41 9.5,-0.166 5.333,-2 40.666,-19.834 120.166,-19.834 90.5,0 140.784,35.281 143.834,37.5 3.666,2.667 6.834,2.666 7.5,1.5 C 3.833,5.5 3.833,3.333 0,0 M 0.667,13.5 C -4.166,13.834 -12,8.333 -27,0.5 c -15,-7.833 -60,-23.334 -117.002,-23.334 -30.273,0 -95.073,3.586 -130.498,23.5 -4.945,2.779 -10.333,6 -14.501,9.335 -4.554,3.643 -11.166,9.999 -16,6.666 -2.938,-2.025 -4.166,-5.834 -3.999,-7.834 0.249,-2.989 0.667,-6 4.167,-10.167 12.523,-14.909 31.08,-21.078 51.666,-27.666 33.334,-10.667 72,-14.667 91.5,-14.667 77.167,0 127.167,19 159.5,37.833 5.953,3.468 10,8 10.334,12.834 0.22,3.177 -2.667,6.166 -7.5,6.5" /></g><g
           transform="translate(305.3901,544.0005)"
           id="g3915"><path
             id="path3917"
             style="fill:#1d1b19;fill-opacity:1;fill-rule:nonzero;stroke:none"
             d="M 0,0 C 0,44.487 17.688,83.803 44.746,107.56 6.38,90.491 -20.667,49.364 -20.667,1.333 c 0,-45.585 24.358,-84.956 59.635,-103.44 C 15.2,-78.03 0,-41.238 0,0" /></g><g
           transform="translate(552.4331,623.0244)"
           id="g3919"><path
             id="path3921"
             style="fill:#1d1b19;fill-opacity:1;fill-rule:nonzero;stroke:none"
             d="m 0,0 c 12.988,-16.419 21.449,-43.217 21.449,-73.493 0,-35.213 -11.444,-65.724 -28.148,-80.668 23.35,8.046 40.807,40.168 40.807,78.598 C 34.108,-40.908 19.913,-11.369 0,0" /></g><g
           transform="translate(350.6753,623.0244)"
           id="g3923"><path
             id="path3925"
             style="fill:#1d1b19;fill-opacity:1;fill-rule:nonzero;stroke:none"
             d="m 0,0 c -12.988,-16.419 -21.449,-43.217 -21.449,-73.493 0,-35.213 11.444,-65.724 28.148,-80.668 -23.35,8.046 -40.807,40.168 -40.807,78.598 0,34.655 14.195,64.194 34.108,75.563" /></g><g
           transform="translate(639.8892,534)"
           id="g3927"><path
             id="path3929"
             style="fill:#1d1b19;fill-opacity:1;fill-rule:nonzero;stroke:none"
             d="M 0,0 C 0,-10.536 -0.56,-20.864 -1.617,-30.926 5.198,-12.215 9,8.585 9,30.5 9,93.739 -22.628,147.705 -67.123,168.897 -27.4,138.57 0,74.337 0,0" /></g><g
           transform="translate(529.8813,352.6172)"
           id="g3931"><path
             id="path3933"
             style="fill:#1d1b19;fill-opacity:1;fill-rule:nonzero;stroke:none"
             d="M 0,0 C 45.399,2.123 83.361,34.556 96.277,78.664 79.646,41.016 44.111,11.754 0,0" /></g><g
           transform="translate(626.022,416.4648)"
           id="g3935"><path
             id="path3937"
             style="fill:#1d1b19;fill-opacity:1;fill-rule:nonzero;stroke:none"
             d="m 0,0 c 2.617,-0.09 24.314,-7.657 37.594,-30.271 9.031,-15.378 10.008,-41.499 10.008,-47.601 0,-6.103 0.726,-19.032 0.726,-21.946 0,-2.914 -4.04,-2.914 -4.04,0.099 0,3.014 -1.046,31.754 -2.546,44.129 -1.5,12.375 -11.75,29.5 -18,34.25 -6.25,4.75 -17.625,10.875 -26.75,11.875 -2.24,0.245 -2.625,1.625 -2,2.75 0.625,1.125 2.375,5 3,5.75 C -1.383,-0.215 0,0 0,0" /></g><g
           transform="translate(607.8892,334.625)"
           id="g3939"><path
             id="path3941"
             style="fill:#1d1b19;fill-opacity:1;fill-rule:nonzero;stroke:none"
             d="m 0,0 c 1.219,0.8 4.328,0.418 6.25,-0.25 26.118,-9.075 56.238,-21.284 80.95,-41.198 17.156,-13.824 31.798,-31.115 40.3,-54.677 8.966,-24.845 5.25,-36.25 5.5,-44.5 -2.75,20.5 -7,37 -11.25,47 -4.25,10 -16.25,35.75 -56.75,58 -18.717,10.283 -42.5,21 -63.75,20.5 -2.015,-0.048 -1.823,2.583 -1.777,4.598 0.046,1.996 0.023,6.929 0.023,8.33 0,1.4 0.319,2.076 0.504,2.197" /></g><g
           transform="translate(594.8872,621.2192)"
           id="g3943"><path
             id="path3945"
             style="fill:#231f20;fill-opacity:1;fill-rule:nonzero;stroke:none"
             d="m 0,0 c 8.744,-23.666 13.543,-49.359 13.543,-76.22 0,-52.358 -18.209,-100.293 -48.397,-137.382 -24.799,-8.131 -52.025,-13.676 -80.799,-16.085 -10.691,-0.896 -21.592,-1.364 -32.665,-1.364 -42.989,0 -83.424,6.962 -118.689,19.212 -32.172,30.689 -52.794,77.98 -52.794,131.041 0,51.99 19.794,98.447 50.854,129.17 34.216,12.79 73.655,20.09 115.653,20.09 13.887,0 27.49,-0.805 40.722,-2.335 11.675,-1.349 23.055,-3.268 34.079,-5.713 4.937,-0.956 9.661,-2.122 14.127,-3.475 10.038,-2.714 19.731,-5.876 29.033,-9.442 -3.298,2.967 -6.703,5.753 -10.216,8.327 -23.835,10.24 -50.265,17.476 -78.366,21.046 -13.071,1.66 -26.499,2.537 -40.203,2.537 -14.003,0 -27.72,-0.911 -41.062,-2.643 -28.282,-3.673 -54.853,-11.073 -78.778,-21.5 -33.516,-27.633 -55.864,-77.204 -55.864,-133.77 0,-75.95 40.284,-139.302 93.806,-153.847 2.901,-0.788 5.842,-1.432 8.817,-1.928 23.914,-4.894 49.338,-7.564 75.703,-7.646 0.418,-0.002 0.833,-0.011 1.252,-0.011 48.317,0 93.506,8.709 132.082,23.84 29.405,30.537 48.199,77.124 48.199,129.328 C 20.037,-56.135 12.688,-25.698 0,0" /></g><g
           transform="translate(236.1602,166.4893)"
           id="g3947"><path
             id="path3949"
             style="fill:#231f20;fill-opacity:1;fill-rule:nonzero;stroke:none"
             d="m 0,0 -30.113,21.419 v 6.15 L 0,48.987 H 0.636 V 36.476 L -17.177,24.494 0.636,12.512 V 0 Z" /></g><g
           transform="translate(314.3105,155.9922)"
           id="g3951"><path
             id="path3953"
             style="fill:#231f20;fill-opacity:1;fill-rule:nonzero;stroke:none"
             d="m 0,0 h -23.009 c -4.666,0 -7.317,2.65 -7.317,7.422 v 19.934 h 12.088 V 10.392 H -4.666 V 81.01 H 7.422 V 7.422 C 7.422,2.65 4.771,0 0,0" /></g><g
           transform="translate(394.5815,179.4258)"
           id="g3955"><path
             id="path3957"
             style="fill:#231f20;fill-opacity:1;fill-rule:nonzero;stroke:none"
             d="M 0,0 H -11.346 V -14.421 L 0,-13.997 Z m -0.106,-23.434 v 1.803 l -12.512,-1.591 c -1.485,-0.212 -2.545,-0.424 -3.606,-0.424 -4.347,0 -6.467,2.121 -6.467,6.363 V 1.59 c 0,4.454 2.12,6.469 6.679,6.469 H 0 V 20.04 h -11.346 v -7.422 h -10.709 v 9.755 c 0,4.347 2.12,6.468 6.68,6.468 h 20.04 c 4.453,0 6.574,-2.121 6.574,-6.468 v -45.807 z" /></g><g
           transform="translate(483.7583,155.9922)"
           id="g3959"><path
             id="path3961"
             style="fill:#231f20;fill-opacity:1;fill-rule:nonzero;stroke:none"
             d="M 0,0 -15.375,36.157 V 0 h -12.087 v 81.01 h 12.087 V 46.761 L -1.908,81.01 H 11.346 V 80.479 L -5.089,41.989 13.36,0.53 V 0 Z" /></g><path
           id="path3963"
           style="fill:#231f20;fill-opacity:1;fill-rule:nonzero;stroke:none"
           d="m 572.088,226.61 h -16.646 v -60.227 h 16.646 z m 4.772,-70.618 h -26.296 c -4.666,0 -7.21,2.651 -7.21,7.422 v 66.165 c 0,4.772 2.544,7.423 7.21,7.423 h 26.296 c 4.666,0 7.316,-2.651 7.316,-7.423 v -66.165 c 0,-4.771 -2.65,-7.422 -7.316,-7.422" /><g
           transform="translate(635.606,166.4893)"
           id="g3965"><path
             id="path3967"
             style="fill:#231f20;fill-opacity:1;fill-rule:nonzero;stroke:none"
             d="m 0,0 h -0.742 v 12.512 l 17.92,11.982 -17.92,11.982 V 48.987 H 0 L 30.114,27.569 v -6.15 z" /></g></g></g></g></svg>